<svg width="18px" height="18px" viewBox="0 0 109 109" fill="none" xmlns="http://www.w3.org/2000/svg">
<g id="fluent:eye-off-16-regular">
<path id="Vector" d="M68.9425 73.7589L96.3696 101.193C96.6863 101.51 97.0623 101.761 97.4761 101.932C97.8899 102.104 98.3334 102.192 98.7812 102.192C99.2291 102.192 99.6726 102.104 100.086 101.932C100.5 101.761 100.876 101.51 101.193 101.193C101.51 100.876 101.761 100.5 101.932 100.086C102.104 99.6726 102.192 99.2291 102.192 98.7812C102.192 98.3334 102.104 97.8899 101.932 97.4761C101.761 97.0623 101.51 96.6863 101.193 96.3696L12.6304 7.80713C12.3137 7.49043 11.9377 7.23921 11.5239 7.06781C11.1101 6.89641 10.6666 6.8082 10.2187 6.8082C9.77087 6.8082 9.32738 6.89641 8.91359 7.06781C8.4998 7.23921 8.12382 7.49043 7.80713 7.80713C7.49043 8.12382 7.23921 8.4998 7.06781 8.91359C6.89641 9.32738 6.8082 9.77087 6.8082 10.2187C6.8082 10.6666 6.89641 11.1101 7.06781 11.5239C7.23921 11.9377 7.49043 12.3137 7.80713 12.6304L29.8115 34.6348C26.8166 36.7563 24.1218 39.2724 21.8 42.1149C18.5123 46.1489 15.9387 50.7156 14.1904 55.6172C14.0474 56.0328 13.8702 56.6051 13.8702 56.6051L13.7476 57.0274C13.7476 57.0274 13.2299 60.4132 16.1661 61.1899C17.0387 61.4205 17.9672 61.2954 18.7477 60.8419C19.5281 60.3885 20.0967 59.6438 20.3285 58.7714L20.3353 58.751L20.3898 58.5807L20.6282 57.8381C22.1131 53.6997 24.29 49.8435 27.0661 46.434C29.2484 43.7516 31.8312 41.4217 34.7233 39.5261L45.4734 50.2762C43.3041 51.6359 41.4692 53.4672 40.1052 55.6339C38.7413 57.8005 37.8833 60.2468 37.5952 62.7908C37.3071 65.3348 37.5963 67.911 38.4412 70.3278C39.2861 72.7446 40.665 74.9398 42.4754 76.7502C44.2858 78.5605 46.481 79.9394 48.8978 80.7843C51.3146 81.6292 53.8908 81.9184 56.4348 81.6303C58.9787 81.3422 61.425 80.4843 63.5917 79.1203C65.7584 77.7564 67.5896 75.9215 68.9493 73.7521L68.9425 73.7589ZM63.9012 68.7177C63.2474 70.2574 62.2255 71.613 60.9253 72.6655C59.6252 73.718 58.0866 74.4353 56.4445 74.7543C54.8024 75.0734 53.1071 74.9844 51.5075 74.4953C49.9078 74.0061 48.4527 73.1318 47.2698 71.9489C46.087 70.7661 45.2126 69.311 44.7235 67.7113C44.2343 66.1116 44.1454 64.4163 44.4644 62.7743C44.7834 61.1322 45.5007 59.5935 46.5532 58.2934C47.6058 56.9933 48.9614 55.9714 50.5011 55.3175L63.9149 68.7245L63.9012 68.7177ZM43.055 28.6125L48.8729 34.4304C50.6441 34.1919 52.5176 34.0625 54.5 34.0625C68.4247 34.0625 76.8859 40.2755 81.9407 46.4408C84.7174 49.8499 86.8943 53.7062 88.3786 57.8449C88.4944 58.1719 88.5693 58.424 88.617 58.5875L88.6715 58.7578V58.7782L88.6783 58.7851C88.9304 59.6352 89.504 60.3536 90.2774 60.7875C91.0508 61.2214 91.9629 61.3366 92.8198 61.1086C93.6768 60.8806 94.411 60.3274 94.8665 59.5666C95.3221 58.8058 95.4629 57.8973 95.2592 57.0342V57.0138L95.2524 56.9866L95.2251 56.898C95.1071 56.4677 94.9707 56.0427 94.8164 55.6241C93.0681 50.7224 90.4945 46.1558 87.2068 42.1217C81.1028 34.662 70.8227 27.25 54.5136 27.25C50.3035 27.25 46.4953 27.7405 43.0618 28.6057L43.055 28.6125Z" fill="black"/>
</g>
</svg>
