<svg width="18px" height="18px" viewBox="0 0 109 109" fill="none" xmlns="http://www.w3.org/2000/svg">
<g id="iconoir:eye">
<g id="Group">
<path id="Vector" d="M13.625 59.0417C29.975 22.7083 79.025 22.7083 95.375 59.0417" stroke="black" stroke-width="7" stroke-linecap="round" stroke-linejoin="round"/>
<path id="Vector_2" d="M54.5 77.2083C52.7107 77.2083 50.939 76.8559 49.2859 76.1712C47.6329 75.4865 46.1309 74.4828 44.8657 73.2176C43.6005 71.9524 42.5969 70.4504 41.9121 68.7974C41.2274 67.1443 40.875 65.3726 40.875 63.5833C40.875 61.7941 41.2274 60.0223 41.9121 58.3693C42.5969 56.7162 43.6005 55.2142 44.8657 53.949C46.1309 52.6838 47.6329 51.6802 49.2859 50.9955C50.939 50.3107 52.7107 49.9583 54.5 49.9583C58.1136 49.9583 61.5791 51.3938 64.1343 53.949C66.6895 56.5042 68.125 59.9697 68.125 63.5833C68.125 67.1969 66.6895 70.6625 64.1343 73.2176C61.5791 75.7728 58.1136 77.2083 54.5 77.2083Z" stroke="black" stroke-width="7" stroke-linecap="round" stroke-linejoin="round"/>
</g>
</g>
</svg>
